<?xml version="1.0" encoding="utf-8"?>
<!-- Generator: Adobe Illustrator 26.5.0, SVG Export Plug-In . SVG Version: 6.00 Build 0)  -->
<svg version="1.0" id="Layer_1" xmlns="http://www.w3.org/2000/svg" xmlns:xlink="http://www.w3.org/1999/xlink" x="0px" y="0px"
	 viewBox="0 0 1080 1080" style="enable-background:new 0 0 1080 1080;" xml:space="preserve">
<style type="text/css">
	.st0{fill:#FF104B;}
	.st1{fill:#FFFFFF;}
</style>
<g>
	<path class="st0" d="M588.36,540.01c120.44-118.17,240.89-236.33,361.33-354.5C925.83,161.03,799.48,36.38,597.08,33.22
		c-210.34-3.29-343.51,127.12-366.1,149.99C350.1,302.14,469.23,421.07,588.36,540.01z"/>
</g>
<g>
	<path class="st0" d="M588.38,540c-120.6,117.61-241.19,235.23-361.79,352.84c24.75,25.26,63.02,59.13,116.21,88.68
		c99.5,55.26,192.68,62.85,235.87,63.81c136.18,3.05,233.56-49.48,259.34-64.22c49.02-28.01,84.55-59.85,107.98-84.09
		C826.79,778.01,707.58,659,588.38,540z"/>
</g>
<g>
	<path class="st0" d="M588.36,540.01C469.23,421.07,350.1,302.14,230.98,183.21c-23.85,23.07-55.84,58.59-84.13,107.87
		c-69.26,120.65-67.16,238.08-64.43,280.3c11.46,177.41,115.53,291.64,145.77,322.64C348.25,776.02,468.3,658.01,588.36,540.01z"/>
</g>
<g>
	<circle class="st1" cx="590.34" cy="540.01" r="200.44"/>
</g>
</svg>
